<svg width="413" height="413" viewBox="0 0 413 413" fill="none" xmlns="http://www.w3.org/2000/svg">
<rect width="413" height="413"/>
<path d="M232.308 121.327C233.321 112.05 238.095 96.2977 251.376 91.1234C249.913 102.577 236.774 116.62 232.308 121.327Z" fill="#09570E" stroke="#033B07" stroke-width="5" stroke-linecap="round"/>
<path d="M220.279 121.327C219.267 112.05 214.493 96.2977 201.212 91.1234C202.674 102.577 215.813 116.62 220.279 121.327Z" fill="#09570E" stroke="#033B07" stroke-width="5" stroke-linecap="round"/>
<path d="M226.531 129.1C222.672 111.817 221.52 90.9927 225.144 82.0835C231.308 102.74 228.429 125.166 226.531 129.1Z" fill="#09570E" stroke="#033B07" stroke-width="5" stroke-linecap="round"/>
<path d="M239.21 120.692C243.701 116.169 253.5 108.376 260.963 111.211C256.827 112.053 243.585 120.063 239.21 120.692Z" fill="#09570E" stroke="#033B07" stroke-width="5" stroke-linecap="round"/>
<path d="M213.79 120.692C209.299 116.169 199.5 108.376 192.037 111.211C196.173 112.053 209.415 120.063 213.79 120.692Z" fill="#09570E" stroke="#033B07" stroke-width="5" stroke-linecap="round"/>
<path d="M142.36 138.073C153 104.02 194 119.52 229 119.52C253.746 119.52 295 105.52 301.5 138.02C309 167.02 305.527 240.406 301.36 281.573C300.36 286.74 300.06 299.873 306.86 311.073C322.86 325.873 315.194 329.573 309.36 329.573H237.86C228.66 326.373 226.167 305.5 224 294.5C222 306.5 220.1 329.573 208.5 329.573H143.86C131.86 329.573 132.86 317.24 134.86 311.073C130.694 272.573 126.36 184.073 142.36 138.073Z" fill="#F4E4CD" stroke="#C8BCAC" stroke-width="3" stroke-linecap="round"/>
<path d="M310.652 314C316.779 320.023 317.48 324.155 316.635 326.541C315.753 329.032 313.009 330.213 311.173 330.006L311.117 330H239C236.141 330 233.907 328.226 231.951 325.039C230.171 322.139 228.743 318.254 227.37 314H310.652Z" fill="#AF5230" stroke="#9A4A2D" stroke-width="2"/>
<path d="M133.073 314C132.097 315.674 130.967 317.482 129.989 319.366C128.914 321.439 128.144 323.402 128.062 325.05C128.021 325.854 128.148 326.544 128.451 327.129C128.752 327.708 129.261 328.254 130.102 328.719C131.72 329.614 134.501 330.175 139.023 330.038L139.976 330H209.441C212.289 330 214.791 327.992 216.901 324.653C218.789 321.667 220.232 317.806 221.221 314H133.073Z" fill="#AF5230" stroke="#9A4A2D" stroke-width="2"/>
<g filter="url(#filter0_f_14_658)">
<path d="M164 237.75L171.5 229.25" stroke="#C36F90" stroke-width="5" stroke-linecap="round"/>
<path d="M172.5 237.75L180 229.25" stroke="#C36F90" stroke-width="5" stroke-linecap="round"/>
<path d="M181 237.75L188.5 229.25" stroke="#C36F90" stroke-width="5" stroke-linecap="round"/>
</g>
<g filter="url(#filter1_f_14_658)">
<path d="M252.5 237.75L260 229.25" stroke="#C36F90" stroke-width="5" stroke-linecap="round"/>
<path d="M261 237.75L268.5 229.25" stroke="#C36F90" stroke-width="5" stroke-linecap="round"/>
<path d="M269.5 237.75L277 229.25" stroke="#C36F90" stroke-width="5" stroke-linecap="round"/>
</g>
<path d="M232.041 243.005C232.866 242.935 233.594 243.546 233.664 244.371C233.741 245.264 234.076 246.677 234.803 247.888C235.515 249.074 236.518 249.946 237.944 250.145C238.764 250.259 239.337 251.017 239.223 251.837C239.109 252.658 238.352 253.23 237.531 253.117C235.634 252.853 234.22 251.909 233.198 250.753C229.469 256.193 224.343 257.9 219.539 257.786C214.802 257.674 210.364 255.806 207.698 254.117C207.445 253.957 207.258 253.734 207.141 253.482C206.111 254.69 204.668 255.688 202.707 255.961C201.887 256.075 201.129 255.502 201.015 254.682C200.901 253.862 201.474 253.104 202.294 252.99C203.72 252.791 204.723 251.919 205.435 250.733C206.162 249.521 206.497 248.109 206.573 247.216C206.644 246.391 207.371 245.778 208.197 245.849C209.022 245.92 209.634 246.646 209.564 247.471C209.476 248.496 209.162 249.938 208.498 251.349C208.774 251.348 209.053 251.423 209.303 251.581C211.636 253.059 215.549 254.69 219.611 254.786C223.589 254.881 227.692 253.516 230.76 249.005C230.985 248.674 231.32 248.463 231.683 248.384C231.058 247.013 230.759 245.623 230.674 244.627C230.604 243.802 231.216 243.076 232.041 243.005Z" fill="#281D1D"/>
<ellipse cx="29.9737" cy="37.5789" rx="29.9737" ry="37.5789" transform="matrix(-1 0 0 1 215.947 158.053)" fill="#161616"/>
<ellipse cx="262.026" cy="195.632" rx="29.9737" ry="37.5789" fill="#161616"/>
<path d="M196.263 167.757C184.096 165.089 160.094 168.003 161.421 201C166.288 176.375 186.677 168.577 196.263 167.757Z" fill="white" stroke="white" stroke-width="2" stroke-linecap="round"/>
<path d="M251.737 167.757C263.904 165.089 287.906 168.003 286.579 201C281.712 176.375 261.323 168.577 251.737 167.757Z" fill="white" stroke="white" stroke-width="2" stroke-linecap="round"/>
<circle cx="11.1842" cy="11.1842" r="11.1842" transform="matrix(-1 0 0 1 187.316 171.474)" fill="#F6F6F6"/>
<circle cx="271.868" cy="182.658" r="11.1842" fill="#F6F6F6"/>
<circle cx="6.71053" cy="6.71053" r="6.71053" transform="matrix(-1 0 0 1 196.263 186.684)" fill="#F6F6F6"/>
<circle cx="258.447" cy="193.395" r="6.71053" fill="#F6F6F6"/>
<path d="M166.737 157.825C169.57 154.694 177.384 148.788 185.974 150.22" stroke="#281D1D" stroke-width="5" stroke-linecap="round"/>
<path d="M287.079 157.825C284.246 154.694 276.432 148.788 267.842 150.22" stroke="#281D1D" stroke-width="5" stroke-linecap="round"/>
<path d="M129.997 169.202L117.06 153.293L148.624 140.84L129.997 169.202Z" fill="#281D1D" stroke="black"/>
<path d="M125.215 190.182L109.004 178.222L147.925 142.432L125.215 190.182Z" fill="#281D1D" stroke="black"/>
<path d="M304 147.464C256.43 128.44 173.512 147.464 138 159.354C138 157.207 138 146.354 141.5 142.354C153.5 128.854 293.5 127.354 299.5 133.354C301.5 135.354 303 136.854 304 147.464Z" fill="#281D1D" stroke="black"/>
<defs>
<filter id="filter0_f_14_658" x="159.5" y="224" width="33.5" height="19" filterUnits="userSpaceOnUse" color-interpolation-filters="sRGB">
<feFlood flood-opacity="0" result="BackgroundImageFix"/>
<feBlend mode="normal" in="SourceGraphic" in2="BackgroundImageFix" result="shape"/>
<feGaussianBlur stdDeviation="1" result="effect1_foregroundBlur_14_658"/>
</filter>
<filter id="filter1_f_14_658" x="248" y="224" width="33.5" height="19" filterUnits="userSpaceOnUse" color-interpolation-filters="sRGB">
<feFlood flood-opacity="0" result="BackgroundImageFix"/>
<feBlend mode="normal" in="SourceGraphic" in2="BackgroundImageFix" result="shape"/>
<feGaussianBlur stdDeviation="1" result="effect1_foregroundBlur_14_658"/>
</filter>
</defs>
</svg>
